<svg xmlns="http://www.w3.org/2000/svg" viewBox="0 0 2041.35 2406.01"><defs><style>.cls-1,.cls-2{fill:#f6680a;}.cls-1{stroke:#f6680a;stroke-miterlimit:10;stroke-width:17px;}</style></defs><title>Asset 2</title><g id="Layer_2" data-name="Layer 2"><g id="Layer_1-2" data-name="Layer 1"><path class="cls-1" d="M84.87,1405.19l58.67-138.89q14.38-34,28.74-68.1c3.38-8,3.38-8.09-3-14.44Q93.67,1108.09,18,1032.42c-2.52-2.53-5.66-4.59-7.81-9.65,3.08-2.69,6.74-5.55,10-8.81q76-76,152-152c9.69-9.71,8.31-6.77,3.52-18.61q-41-101.39-82.34-202.67c-.38-.93-.76-1.85-1.12-2.78-2.79-7.16-2.84-7.28,4-10.13,12.58-5.26,25.23-10.38,37.86-15.51l163.71-66.48c8.32-3.38,8.37-3.42,8.37-12.17q0-97.49,0-195c0-9.31-.48-18.62-.82-27.93-.17-4.52,1.46-7,6.39-6.45a68.72,68.72,0,0,0,7,0q108,0,216,0c13.64,0,10.74,1.8,15.84-10.26q41.44-98,82.68-196c1.42-3.37,3.12-6.64,4.42-10.05,1.37-3.61,3.28-4.3,6.88-2.65,7.56,3.47,15.32,6.49,23,9.72l178.43,75.31c10.77,4.55,8.45,4.33,16-3.21Q937.68,91.48,1013.3,15.8c2.32-2.32,4.25-5.15,7.45-6.64,3,1,4.56,3.71,6.61,5.76q78.54,78.41,156.91,157c4.78,4.8,8.43,6.29,15.32,3.43q99.14-41.06,198.66-81.2c5.15-2.09,11-6.68,15.67-4.82s5.26,9.45,7.36,14.6q38.85,95.27,77.54,190.61c4.55,11.14,1.91,9.68,14.15,9.69q97,.08,194,.06c8.32,0,16.65.62,25,.53,5-.05,6.33,2.09,6.08,6.67-.35,6.32-.32,12.65-.33,19q0,104.49,0,209c0,12.53-.87,10.48,10.05,15.09L1950,640c.31.13.65.18.95.32,7.72,3.61,8.42,1.85,4.39,11.38q-41.06,97.06-82,194.16c-5.53,13.1-5.55,13.09,4.65,23.29l147.76,147.77c1.41,1.41,2.74,2.93,4.26,4.22,3,2.54,2.74,4.76,0,7.42-6,5.77-11.81,11.76-17.7,17.65q-70.7,70.7-141.41,141.4c-9.16,9.16-7.78,6.69-3.66,16.86q38.05,94,76.37,187.85c3.47,8.54,6.93,17.08,10.66,26.28-16.42,6.7-32.07,13.09-47.74,19.47l-160,65.1c-8.82,3.59-8.87,3.62-8.86,12.74.08,69.32.46,138.64.13,208-.11,23.92,2.57,20.69-19.9,20.72-70.32.1-140.65,0-211,.07-12.89,0-11.27-2.08-16.71,10.79q-42.58,100.75-85.16,201.5c-1.15,2.72-1.84,5.71-4.57,8.44-8.32-3.49-16.86-7.06-25.38-10.66l-181.19-76.5c-7.85-3.31-7.89-3.32-14.39,3.18q-75.68,75.62-151.33,151.27l-1.41,1.42c-7.3,7.33-6.11,7.06-12.91.27q-22.29-22.25-44.55-44.53c-37.47-37.47-75.05-74.83-112.3-112.53-5.25-5.31-9.46-6.18-16.38-3.32-65.84,27.14-131.83,53.9-197.78,80.77-16.61,6.77-16.55,6.75-23.3-9.87q-38.7-95.33-77.48-190.63c-4.58-11.24-3.72-9.61-14.45-9.61q-103.48.07-207,.24c-14.48,0-14.47,0-14.47-14.18q0-110.49,0-221c0-12.63,1.61-10.06-10.08-15Q193.63,1451.28,91,1408.1C89.22,1407.33,87.47,1406.42,84.87,1405.19Zm923.67,94.46h-.31q0-132.94,0-265.87c0-2.67-.06-5.33,0-8,.05-3-1.05-5-4.3-5.67q-21.05-4.12-42.07-8.41c-3.11-.64-5.14.19-6.32,3.18-.85,2.17-1.9,4.25-2.81,6.4q-55.62,132.06-111.25,264.11-49.09,116.38-98.34,232.7c-3.44,8.15-3.4,8.22,2.81,14.39,34.26,34.06,68.66,68,102.67,102.29,5.18,5.23,9.3,5.51,15.68,2.83,28.83-12.1,57.9-23.63,86.81-35.54,17.21-7.1,34.24-14.66,51.46-21.73,4.3-1.76,6.62-4,6-8.83a56.27,56.27,0,0,1,0-7Q1008.55,1632.08,1008.55,1499.65Zm23.88-952h.27q0,132,0,264c0,2.67.07,5.33,0,8s1.1,4.13,3.94,4.71c15,3,30,6.25,44.94,9.42,2.75.58,4.37-.43,5.33-3.09,1-2.81,2.36-5.51,3.52-8.27q54.1-128.41,108.2-256.82,49.12-116.42,98.33-232.79c5.17-12.27,5.44-8.7-3.45-17.6q-48.07-48.08-96.4-95.9c-13.74-13.57-8.9-12.32-26-5.31-43.72,17.9-87.8,34.92-131.08,53.9-5.78,2.54-8.49,5.61-7.63,11.84a51.83,51.83,0,0,1,.05,7Zm679,100.06h-.53c0-24.33-.2-48.65.14-73,.09-6.23-1.81-9.3-7.72-11.75q-67.75-28.15-135.14-57.14c-6.71-2.89-10.91-1.7-15.71,3.16-14.27,14.44-28.44,29-42.83,43.32q-161.82,161.23-323,323.06c-4.71,4.71-9.25,9.61-14.09,14.18-2.88,2.72-3.47,5.08-1.15,8.59q11.81,17.94,23.14,36.19c2.22,3.57,4.57,4.29,8.19,2.26a57.48,57.48,0,0,1,6.48-2.6c152.07-62.33,304.78-123.1,456.49-186.33,11.65-4.85,23.54-9.14,35.31-13.7,7.43-2.88,11.08-7.25,10.75-16.29C1710.84,694.4,1711.4,671.05,1711.4,647.73Zm-218.18,388.71v.55H1228.38c-2.33,0-4.67.13-7,0-4.33-.27-6.55,1.25-7.37,5.92-2,11.45-4.65,22.8-7,34.18-2.33,11.11-2.33,11.1,8.61,15.71q191.27,80.61,382.52,161.23,56.54,23.84,113,48c5.55,2.38,9.3,2.3,13.9-2.38q51.48-52.4,103.57-104.19c4.28-4.26,4.68-7.76,2.44-13.15-19.15-46.1-37.12-92.67-57-138.48-2.62-6-5.92-7.69-12-7.6-21.31.32-42.62.25-63.93.26Q1595.65,1036.46,1493.22,1036.44Zm-96.09,682v-.32c24.32,0,48.64-.19,73,.13,6.13.08,9.37-1.58,11.85-7.56q28.12-67.78,57.08-135.21c2.78-6.46,2.23-10.7-2.78-15.62-14.48-14.23-29-28.44-43.33-42.82q-168.32-168.77-337.16-337c-.47-.47-.93-1-1.41-1.41-8.81-8.5-5.71-7.83-16.15-1.39-7.93,4.89-15.72,10-23.57,15-10.63,6.81-10.65,6.82-6,18.14Q1207,1452.19,1305.34,1694c2.26,5.55,4.59,11.06,6.9,16.59,2.4,5.76,6,8.27,12.94,8.1C1349.15,1718.08,1373.14,1718.44,1397.13,1718.44ZM642.06,330.22c-22.94,1.06-47.26,1-71.57.64-6.46-.09-9.37,2.46-11.72,8.08C540.07,383.78,521.27,428.58,502,473.2c-3,7-2.21,11.35,3.11,16.51q22.21,21.54,44,43.5Q713.62,698,878.59,862.38a29.43,29.43,0,0,1,2.8,2.85c3.43,4.53,6.76,4.9,11.7,1.46,10.65-7.4,21.83-14,32.73-21.08,8.72-5.64,7.68-4.2,4-13.2Q832.11,592,734.27,351.61c-2-4.92-4.49-9.65-6.44-14.59-2.12-5.36-5.62-7-11.45-6.95C692.07,330.43,667.75,330.22,642.06,330.22Zm-97.55,682.05v-.06H738.46q35.49,0,71,0c7.65,0,7.68-.13,9.16-7.2q3.87-18.55,7.66-37.12c2.28-11.2,2.25-11.23-8.27-15.66Q673.59,891.3,529.18,830.42q-95.64-40.34-191.26-80.73c-13.53-5.71-13.53-5.72-23.45,4.25Q282.73,785.81,251,817.69c-12.22,12.28-24.37,24.64-36.66,36.86-3.07,3.06-4.65,5.68-2.66,10.43,19.69,47,37.74,94.61,58.33,141.22,2.08,4.72,4.53,6.63,9.6,6.49,12.65-.35,25.32-.39,38-.4Q431,1012.25,544.51,1012.28ZM332.16,1401.68h.32c0,24,.23,48-.15,72-.11,6.57,1.6,10,8,12.65q67.77,28,135.12,57.13c6.91,3,10.78,1.39,15.52-3.26,13.32-13.05,26-26.72,39.21-39.88q166.71-166.19,332.93-332.87c1.41-1.41,2.74-2.92,4.24-4.24,2.7-2.37,2.87-4.73.88-7.79q-12.56-19.24-24.79-38.68c-2-3.24-4.42-3.6-7.57-2.22-1.52.67-3.08,1.27-4.62,1.89q-206.62,84-413.25,168.06c-22.17,9-43.8,19.32-66.42,27.25-4.68,1.64-9.09,4.07-13.68,6s-5.94,5.07-5.89,10.06C332.31,1352.37,332.16,1377,332.16,1401.68Zm1378.71,8.14h-.24c0-24.65-.17-49.31.14-74,.07-5.25-1.91-7.58-6.45-9.48-20.54-8.61-40.91-17.64-61.43-26.29Q1498,1239,1353.1,1178l-150.85-63.56c-7.41-3.12-7.46-3.12-12,3.25-6.15,8.7-12.29,17.41-18.3,26.21-7.85,11.49-8.33,8.32,1.65,18.31q163.58,163.7,327.25,327.31c18.85,18.85,37.82,37.57,56.5,56.58,3.84,3.91,6.93,4.89,12.12,2.37,9.55-4.65,19.5-8.5,29.35-12.51q51.75-21.11,103.55-42.1c8.43-3.43,8.45-3.46,8.45-13.1Q1710.89,1445.31,1710.87,1409.82Zm-214.82-398v-.17c67,0,133.95.42,200.91-.23,24-.23,47.93,1,71.9-.24,5.33-.27,8.37-1.51,10.55-6.75q27.74-66.86,56.09-133.48c2.07-4.88,1.11-7.76-2.42-11.28q-51.68-51.51-103-103.4c-4.09-4.16-7.26-4.25-12.12-2.22-20,8.32-40.05,16.29-60.08,24.44L1270.55,936.15q-28.66,11.66-57.28,23.41c-7.16,2.94-7.14,3-5.86,9.88,2.25,12.09,4.7,24.15,6.67,36.29.73,4.45,2.44,6.6,7.08,6.16,2.31-.22,4.66,0,7,0ZM1406.18,331q0,.17,0,.34c-24.64,0-49.28.15-73.92-.12-5.08-.06-7.78,1.42-9.77,6.17-8.47,20.25-17.42,40.3-25.95,60.53q-63.41,150.44-126.7,300.93-29.06,69-58.15,138c-3.91,9.28-4.4,7.11,4,13.2,8.09,5.86,16.33,11.51,24.53,17.21,11,7.67,8.64,7.15,17.61-1.82Q1318.95,704.33,1480,543.1c20.48-20.5,40.86-41.1,61.58-61.35,4.28-4.19,4.85-7.47,2.37-12.88-19.43-42.37-36.22-85.85-53.87-129-3.61-8.82-3.63-8.86-12.92-8.88Q1441.66,331,1406.18,331ZM635.59,1718.12v.47c24.66,0,49.32-.18,74,.15,5,.07,6.82-2,8.55-6.09,8.47-20.26,17.35-40.34,25.89-60.58q76.84-182.24,153.59-364.52c10.47-24.85,21-49.69,31.31-74.61,3.75-9,5.69-7.88-4.46-15-6.83-4.76-13.69-9.49-20.5-14.28-12.51-8.79-12.5-8.8-23.61,2.3Q720.19,1346.15,560,1506.27c-19.8,19.79-39.58,39.59-59.55,59.2-3.82,3.75-5.12,7.07-2.83,12.27,4.55,10.35,8.41,21,12.66,31.47q20.45,50.45,41,100.85c3.75,9.18,2.39,8,12.28,8Q599.59,1718.18,635.59,1718.12ZM1077.73,1210c-11.44,2.11-22.23,4.13-33,6.08-11.29,2-11.33,2-11.33,13.82q.09,152.43.21,304.86c.09,80,.38,159.91.2,239.86,0,7.36,2.66,10.47,9,13,16.1,6.3,32,13.17,47.93,19.88,27.29,11.48,54.64,22.84,81.78,34.66,5.85,2.55,9.43,1.57,13.81-2.83q50.35-50.71,101.25-100.88c4.94-4.86,5.45-8.61,2.85-14.7-8.5-19.89-16.37-40-24.53-60.08Q1176.43,1444,1087,1224.33c-1.51-3.7-3.1-7.37-4.47-11.12C1081.53,1210.53,1079.68,1209.73,1077.73,1210Zm-69.84-665.8H1007q0-135.42.12-270.84c0-5.79-1.56-8.82-7.17-11.14Q934,234.92,868.31,207c-5.22-2.22-8.68-2.06-13,2.3q-51,51.45-102.67,102.29c-4.38,4.31-4.53,7.72-2.3,13,8.66,20.55,16.81,41.3,25.22,62q69.27,170.18,138.56,340.35c13.3,32.68,26.66,65.34,39.79,98.08,2,5,3.78,7.42,10.06,5.81,11.25-2.89,22.83-4.48,34.29-6.57,9.56-1.74,9.57-1.71,9.63-11.18,0-1.33,0-2.67,0-4Q1007.89,676.59,1007.89,544.16ZM332.47,639h.26c0,24.66.14,49.32-.11,74-.05,5.07,1.42,7.62,6.25,9.63,21.5,8.91,42.74,18.45,64.19,27.49q149.47,63.05,299,126Q766,903,829.93,929.94c7.39,3.11,7.47,3.09,12-3.31q11.27-15.9,22.39-31.9c4.4-6.36,4.32-6.43-1.32-12.23-.93-1-1.89-1.88-2.83-2.83Q741.35,761,622.55,642.23,554.33,574,486.35,505.56c-4.68-4.73-8.51-5.77-14.69-3.24q-66.48,27.29-133.22,53.94c-4.9,2-6.11,4.83-6.07,9.76C332.59,590.35,332.47,614.68,332.47,639Zm211,398.64v.3q-134,0-267.95-.07c-5.37,0-8.92.65-11.39,6.64q-27.58,67-56.08,133.53c-2.07,4.86-1.23,7.68,2.32,11.23q51.71,51.51,103,103.39c4,4,7.14,4.41,12.15,2.31,20.87-8.72,41.94-17,62.9-25.49q159-64.71,318.06-129.48,57.33-23.34,114.66-46.66c7.25-3,7.24-3.05,5.84-10.77-2.13-11.78-4.33-23.55-6.43-35.33-1.7-9.52-1.65-9.53-11.18-9.6h-266Zm467.28,161c3.54-.42,6.21-.62,8.83-1.06,14.12-2.36,28.16-5.36,42.36-7a64,64,0,0,0,28.53-10.72c14.17-9.35,28.62-18.29,43-27.33a33.91,33.91,0,0,0,10.18-9.37c12.18-17.5,24.52-34.89,36.83-52.29a21.84,21.84,0,0,0,4-9c3-16.7,6.18-33.37,9.34-50a30.6,30.6,0,0,0-.05-10.92c-2.59-15.42-4.88-30.89-7.69-46.27-1.06-5.79-1.29-11.74-4.79-17.11-11.26-17.31-22.07-34.91-33-52.41a33.94,33.94,0,0,0-9.53-10.05q-25.84-18-51.47-36.25a26.72,26.72,0,0,0-10.93-4.54q-26-4.83-52-9.68a30.54,30.54,0,0,0-10.91.13c-11.49,1.95-23,4.14-34.51,5.51-14.83,1.76-28.21,6.41-40.51,15.2-11.9,8.51-24.61,15.89-37.09,23.58A40.61,40.61,0,0,0,889,900.57c-11.44,16.39-22.87,32.79-34.56,49a30.6,30.6,0,0,0-5.4,12.66c-2.95,16-5.72,32.1-8.86,48.1a43.68,43.68,0,0,0-.15,16.73c2.59,14.07,4.75,28.22,6.8,42.38a52.88,52.88,0,0,0,8.41,22.05c9.91,15,19.39,30.3,28.88,45.58A38.15,38.15,0,0,0,895,1148.57c12.31,8.55,24.87,16.82,36.6,26.11,12.1,9.58,25.31,15.55,40.63,17.1,3.63.37,7.21,1.28,10.81,1.93ZM1710.88,537.5c0-3.82,0-7.12,0-10.43q0-53.94,0-107.87c0-3-.17-6,.11-9,2.3-24.27-.58-48.55.33-72.82.13-3.44-.78-5.54-5-5.6-8.63-.11-17.25-1.06-25.88-1.07q-77.91-.16-155.82,0c-3.19,0-6.56-.83-9.24.77-1.09,1.81-.41,3,.09,4.22,19.6,47.31,37.82,95.18,58.64,142a14.06,14.06,0,0,0,8.26,8c11.13,4.38,22.31,8.67,33.35,13.28,28.53,11.92,57,24,85.48,36C1703.91,536,1706.41,537.92,1710.88,537.5Zm142.6,630.59c3.69-1.18,5.72-4.43,8.26-7q58.4-58.26,116.7-116.62c5.18-5.18,10.35-10.37,15.7-15.37,2.89-2.7,2.59-4.72-.09-7.41-5.41-5.42-10.4-11.26-15.8-16.68q-56.5-56.62-113.14-113.11c-2.3-2.29-4.08-5.35-7.76-6.16a11.41,11.41,0,0,0-1.76,2.29q-28.87,68-57.76,136.07c-1.76,4.12-1.32,7.55.28,11.44q25.62,62.36,51.13,124.77C1850.34,1163,1850.62,1166.25,1853.48,1168.1ZM567.19,1745.22c-1.39,2.68.33,4.68,1.16,6.74q9.88,24.54,19.93,49c16.61,40.29,32.27,81,49.7,120.92,2.78,6.37,2.78,6.56,9.09,4.12s12.19-5.24,18.34-7.74q77.16-31.38,154.33-62.74c3.17-1.29,6.86-1.93,9.16-4.78-1.5-3.71-4.35-5.61-6.66-7.92q-44.45-44.57-89-89c-4.83-4.8-9.14-9.68-17.55-9.6-46,.47-91.92.2-137.88.26C574.23,1744.47,570.54,1743.63,567.19,1745.22Zm938.79-27.1h9.38q64.93.25,129.87.49c19.32,0,38.63-.2,58-.1,4.78,0,7.41-.86,7.18-6.56-.31-7.63.46-15.3.47-22.95q.08-81.43,0-162.86c0-2.48.52-5.14-1.16-7.83-1.63.59-2.86,1-4.05,1.46-45.09,18.83-91,35.74-135.42,56.12a16.67,16.67,0,0,0-9.13,9.72q-15.23,37.43-30.76,74.74C1522.54,1679.06,1514.59,1697.69,1506,1718.12Zm-1316.08-837L46.72,1024.56c45.1,47.16,92.37,92.85,138.63,139.66,1.31-1.36,1.95-1.76,2.19-2.32q29.1-68.47,58.18-136.95c1.73-4,1.19-7.62-.4-11.51q-25.44-61.89-50.78-123.82C193.32,886.64,193,883.05,189.91,881.17Zm974.71-691.86c-2-4.66-5.14-6.76-7.68-9.31q-57.86-58-115.81-115.87c-5.17-5.18-10.43-10.29-15.33-15.72-3.33-3.69-5.76-3.11-8.94.19-4.85,5-10.2,9.55-15.14,14.49Q944.81,119.9,888,176.82c-2.27,2.28-5.3,4.07-6,7.26.46,2,1.92,2.15,3.06,2.63,45,19.11,90,38.1,134.89,57.41,4.62,2,8.25,1.09,12.29-.59,14.11-5.88,28.23-11.76,42.38-17.55C1104.45,213.79,1134.31,201.66,1164.62,189.31ZM122,644.54l76.77,188.22c3.33,0,4.7-2,6.3-3.65q48.47-48.27,97-96.52c3.39-3.36,4.47-6.85,4.45-11.48-.19-47.93-.18-95.87-.28-143.8,0-2.16.79-4.56-1.68-7.17ZM876.76,1860.69c1.49,3.46,4.61,5.57,7.15,8.11q58.26,58.37,116.59,116.65c5.18,5.18,10.36,10.36,15.34,15.72,2.62,2.82,4.54,2.85,7.31.06,5.86-5.9,12.2-11.34,18.09-17.21q55.91-55.77,111.7-111.65c2.34-2.34,4.58-4.77,7.12-7.43a21.43,21.43,0,0,0-3.43-2.41q-68-28.86-136-57.69c-4.06-1.73-7.63-1.09-11.49.5q-62.32,25.57-124.67,51.06C881.85,1857.49,878.55,1857.71,876.76,1860.69ZM332.47,529.3a6.89,6.89,0,0,0,6.18-.15q65.58-26.73,131.19-53.38a14.44,14.44,0,0,0,8.59-8.86q8.76-22.28,18-44.37c11.17-26.7,22.55-53.32,33.71-80,1.36-3.25,3.79-6.39,2.62-10.54-3.45-1.49-7.15-.93-10.76-.93Q468.53,331,415.08,331c-4,0-8-.6-11.94-.62-21.64-.11-43.29-.09-64.93-.2-3.88,0-5.25,1.81-5.28,5.47-.07,9-.44,18-.44,27q-.07,78.43,0,156.87ZM1473.89,303.39c.8-1.93-.14-3.39-.76-4.91-4.76-11.72-9.48-23.46-14.28-35.17q-27.63-67.47-55.3-134.91c-3.12-7.6-3.26-7.75-10.67-4.93-6.51,2.48-12.81,5.52-19.27,8.15q-76.28,31-152.57,62.05c-3,1.22-6.41,1.72-9,4.67,1.42,3.58,4.55,5.65,7,8.15,27.7,27.92,55.93,55.33,83,83.87,9.9,10.46,19.56,14.89,34.35,14.44,42.62-1.3,85.3-.48,128-.58C1467.56,304.21,1470.93,305.1,1473.89,303.39ZM1466,1744.11c-48.64,0-96.57,0-144.5,0-4,0-6.75,1.76-9.49,4.52q-48.92,49.26-98,98.37c-2.55,2.57-5.59,4.74-7.32,8.14,1.26,2.31,3.64,2.72,5.73,3.59,56.14,23.43,111.77,48.06,168.34,70.46,7.9,3.13,7.9,3.15,11.53-4.71.7-1.51,1.37-3,2-4.58,21.54-55.17,45.73-109.24,68.36-164C1464,1752.59,1466.1,1749.49,1466,1744.11ZM195.91,1210.06c-3.16,3.06-3.85,6.09-5,8.81-13.53,31.87-27.1,63.73-40.4,95.7-9.71,23.35-20.25,46.36-29,70.14-3,8.16-3.82,7.7,4.91,11.43,5.8,2.48,11.74,4.65,17.56,7.1q75.89,32,151.78,64c2.93,1.23,5.7,3.63,10.42,2.23,0-6.26,0-12.81,0-19.35q.12-61,.24-122c0-4.34-.44-8.11-4.06-11.67-30.61-30.18-61-60.62-91.38-91C206.1,1220.52,201.25,1215.5,195.91,1210.06Zm329.91,508.07c.29-1.78.48-2.16.37-2.41-19.65-48.74-39-97.61-59.48-146-1.65-3.89-4.31-5.63-7.76-7-10.19-4.06-20.43-8-30.54-12.21-28.52-11.94-57-24.05-85.51-36-2.93-1.22-5.71-3.66-9.45-2.37-1.76,3.07-.9,6.44-.92,9.64q-.33,63.43-.49,126.86c-.05,20.65.12,41.29,0,61.94,0,4.33.81,6.81,6,6.77,9-.08,17.95.71,26.93.73q74.93.12,149.86,0ZM834.2,193.6c-1.83-2.27-4.49-2.78-6.84-3.77q-57-24.08-114-48.11c-18.08-7.63-36.05-15.5-54.42-22.45-4.79-1.81-7.31-1.55-9.07,3.52-2,5.65-4.34,11.15-6.67,16.66q-28.93,68.53-57.9,137c-3.72,8.8-7.35,17.64-11,26.52,4.29,2.06,8,1.21,11.52,1.22,40.65.07,81.3-.36,121.93.31,11.31.18,19.32-1.83,27.76-10.69C765.57,262.26,797,232,828,201.18,830.24,198.9,833.2,197.07,834.2,193.6Zm904.28,1283.92c3.12,1.15,5.11-.47,7.19-1.31q32.4-13.06,64.75-26.24,52.18-21.37,104.3-42.87c6.41-2.64,6.6-2.78,4.09-9.28-3-7.74-6.49-15.28-9.62-23q-30.48-74.93-60.95-149.87c-1.23-3-1.67-6.52-4.57-8.89a9.85,9.85,0,0,0-2.5,1.34q-48.52,48.32-97,96.74a19.88,19.88,0,0,0-6.22,16.16c.44,6.28-.31,12.64-.32,19q-.06,59,0,118C1737.69,1470.53,1737.11,1473.9,1738.48,1477.51Zm109.24-639c3.4-3.11,4-6.47,5.3-9.47,9.14-21.43,18.37-42.82,27.27-64.35,14.1-34.14,29.36-67.79,42.56-102.31,1.66-4.33,1.62-6.55-3-8.28-7.47-2.77-14.81-5.93-22.16-9q-74-31.18-148.07-62.35c-3.48-1.46-6.84-4.17-11.06-2.93-1.44,3.8-.85,7.5-.85,11.13,0,40,.66,80-.44,119.92-.34,12.44,2.56,20.67,11.61,29.38,31.92,30.71,62.8,62.5,94.09,93.87C1844.34,835.52,1845.84,836.81,1847.72,838.53Z"/><path class="cls-2" d="M635.18,2405H585.11c-2.86,0-5.73.08-8.58,0-36.23-1.44-42.75-19.84-42.42-53.85,0-4.14,2.42-5.9,6.18-6.69,7.46-1.55,14.82-3.67,22.31-5.07,8.54-1.6,12.29,1.58,13.09,10.55.26,2.92.1,5.87.23,8.81.16,3.52,2.07,5.21,5.45,5.26,1.91,0,3.81.11,5.72.11,32,0,63.91.08,95.86,0,10.88,0,11.13-.27,11.14-11.45,0-8.77,3.42-19.62-1.52-25.77-5.25-6.55-16.16-2.33-24.55-2.44-26.7-.33-53.41-.11-80.12-.14-4.77,0-9.55,0-14.3-.36-19.63-1.53-31.32-11.64-33.83-31.36a190.22,190.22,0,0,1,.18-51.28c2.58-17.77,11.58-26.36,29-29.64a103.2,103.2,0,0,1,18.47-1.67q47.93-.24,95.86,0a106.78,106.78,0,0,1,18.48,1.6c18.43,3.35,26.3,11.73,29.51,30.63,3.77,22.2,3.77,22.2-17.09,26.76-3.26.71-6.49,1.64-9.79,2.08-10,1.33-13-.68-13.38-11.29-.27-6.9-2.08-9.32-9-9.24q-45.78.51-91.56,0c-7.16-.07-10,1.94-10.27,9.78-.88,25.42-1.17,25.41,23.32,25.41h83c3.81,0,7.64-.11,11.44.13,23.85,1.51,36.08,13.07,37.73,37.35a341.12,341.12,0,0,1,0,44.05c-1.44,23.37-12,34.1-34.69,37.17a32.63,32.63,0,0,1-4.26.51q-30.76.05-61.52,0Z"/><path class="cls-2" d="M1829.88,2307.74c0-26.92-.06-53.84,0-80.76,0-15.16,1.83-17.1,16.33-17.13q56.47-.12,112.94.07a168.46,168.46,0,0,1,25.63,1.89c30,4.69,48.87,23.3,53.49,54.39a285.52,285.52,0,0,1,.21,81.93c-4.48,31.89-25,51.46-56,55.32-20,2.49-40,1.28-60,1.49-24.78.26-49.56.11-74.34,0-17.35,0-18.28-1.06-18.3-19.42Q1829.85,2346.65,1829.88,2307.74Zm41.88-.29c0,15.66.28,31.34-.12,47-.2,7.77,2.69,10.29,10.06,10,12.38-.47,24.78,0,37.17-.15,16.2-.16,32.44.2,48.57-.95,19.36-1.38,26-8.15,29.19-27.5,2.9-17.49,2.29-35.22.79-52.69-2-23.23-11-31.62-34.45-32.3-27.62-.8-55.28-.13-82.92-.39-6.16-.06-8.44,2.23-8.35,8.5C1871.94,2275.14,1871.78,2291.29,1871.76,2307.45Z"/><path class="cls-2" d="M172.79,2339.1c0-7.32,0-12,0-16.71,0-31.84-.05-63.68,0-95.52,0-15,1.89-16.84,16.44-17.07,25.53-.41,25.53-.41,25.53,25.64q0,74.22-.07,148.43c0,7,2.34,15.14-5.73,19.77-6.2,3.56-23.93,1.35-29.72-3.85-13.63-12.26-27.14-24.67-40.69-37q-43.34-39.49-86.73-78.92c-2-1.77-3.48-4.9-8.12-3.66-1.67,4.05-.87,8.91-.88,13.57-.07,31.35,0,62.7-.07,94.06,0,14.86-2.17,16.93-16.51,17.18-26.5.47-25.56-.34-25.45-25.42.21-50,0-99.93.12-149.9,0-6.57-2.54-15.41,5.45-18.11,9.3-3.15,19.77-5,28.43,2.64,15.16,13.44,30,27.21,45,40.85q40.68,37,81.36,74.07C164.31,2331.93,167.53,2334.57,172.79,2339.1Z"/><path class="cls-2" d="M1585.56,2279.76c0,10.22,0,19.9,0,29.59,0,26.45.1,52.91,0,79.36-.07,13.86-2.34,16-15.93,16.29-28.08.54-26.07-.66-26-26.3q.22-76.42,0-152.84c0-6.06-.39-13.36,6.24-14.78,10-2.14,20.52-4.12,29.62,4.53,14.34,13.64,29.17,26.74,43.81,40.06q42.3,38.48,84.63,76.94c1.7,1.55,3.5,3,6,5.13,2.45-4.28,1.58-8.2,1.59-11.81.09-32.82,0-65.64.07-98.46,0-16.06,1.52-17.48,17.31-17.65,24.67-.26,24.67-.26,24.67,25.05,0,49.48.07,99-.07,148.43,0,7.47,3,17.72-6.58,20.35s-20.5,4.43-29.62-4.31c-12.9-12.36-26.32-24.13-39.52-36.16q-43.35-39.48-86.73-78.92C1593,2282.4,1591.41,2279.63,1585.56,2279.76Z"/><path class="cls-2" d="M893.67,2209.82c29.12.7,20.73-4.79,34.5,20.81,27.15,50.5,53.94,101.21,80.88,151.83a100.55,100.55,0,0,1,4.72,9c2.88,7.06-.13,12.74-7.65,13.24-9,.6-18.1,0-27.15.23-5.17.12-7.59-3-9.68-7.16-5-10-10.45-19.77-15.24-29.88-2.82-6-6.48-8.55-13.25-8.47q-47.16.53-94.33,0c-6.72-.08-10.44,2.41-13.28,8.37-4.81,10.09-10.37,19.81-15.26,29.87-2.38,4.9-5.43,7.58-11,7.33-7.13-.32-14.31.28-21.43-.2-8.56-.58-11.64-5.91-8.39-13.87,1.28-3.14,3.1-6.06,4.67-9.08,27.18-52.16,54.8-104.08,81.2-156.65,6.21-12.36,13.51-17.64,26.42-15.46A26.15,26.15,0,0,0,893.67,2209.82Zm34.49,110.81c-6.78-19.62-27.71-59.2-35.09-66.91-13.38,20.46-31.12,56.55-32.8,66.91Z"/><path class="cls-2" d="M376.86,2359.63c-14.78,0-29.58.57-44.32-.21-9-.48-13.91,3-17.47,11.16-4.07,9.36-9.36,18.15-13.86,27.32-2.39,4.88-5.56,7.47-11.16,7.16-6.65-.37-13.36.18-20-.15-10.36-.51-13.53-5.83-8.87-15.19,6.28-12.63,13-25,19.51-37.54,22.7-43.56,45.63-87,67.91-130.78,4.3-8.44,8.83-13,18.59-11.75a94.66,94.66,0,0,0,21.42,0c8.77-.87,13.69,2.61,17.85,10.61,22,42.28,44.56,84.25,66.93,126.33,7.31,13.74,14.76,27.4,21.93,41.21,6.18,11.9,3.2,16.73-10.22,17.14-28.19.86-27.92.71-41.83-25.43-12.89-24.24-5-19.36-32.06-19.87C399.75,2359.45,388.3,2359.63,376.86,2359.63Zm.48-109.2c-12.83,23.94-24.64,46.34-36.12,69.73H413Z"/><path class="cls-2" d="M1474.42,2404.85c-12.84,4.35-19.59-4.16-25.12-16.59-4.3-9.67-7.08-22-15.86-27.18-8.2-4.83-19.56-1.32-29.53-1.4-23.83-.19-47.68.19-71.51-.21-7.16-.12-11.42,2.16-14.46,8.92-4.39,9.76-9.65,19.1-14.61,28.58-1.55,3-2.6,7.18-6.3,7.36a234.47,234.47,0,0,1-30,.07c-5.31-.42-7.51-6.91-5.27-12.56a71.35,71.35,0,0,1,3.32-6.49c28.56-54.76,57.36-109.4,85.43-164.42,4.51-8.83,9.52-12.32,18.87-11.26a91.23,91.23,0,0,0,20,0c9.23-1,14.51,2.28,19.07,11,28.78,55.2,58.2,110,87.41,165a60,60,0,0,1,3.37,6.46c2.39,6.24-.58,11.79-7.2,12.56C1486.9,2405.33,1481.61,2404.85,1474.42,2404.85ZM1379,2250.21c-12.54,24.27-24.61,46.52-36,69.93h71.77Z"/><path class="cls-2" d="M1058.61,2307.58c0-26.9-.06-53.79,0-80.69,0-15.12,1.81-16.83,16.34-17.07,24.83-.42,25.39-.39,25.15,25.77-.34,37.16-.1,74.33-.08,111.49,0,17.75-1.46,17,15.95,17q50.71,0,101.42,0c16.75,0,17.52.92,17.59,18.57.09,22.2,0,22.3-21.28,22.31q-67.14,0-134.27,0c-1.9,0-3.81,0-5.71,0-13.17-.32-15-2-15.07-15.24-.15-22.49,0-45,0-67.48Q1058.61,2314.91,1058.61,2307.58Z"/></g></g></svg>